<svg xmlns="http://www.w3.org/2000/svg" xmlns:xlink="http://www.w3.org/1999/xlink" width="240" zoomAndPan="magnify" viewBox="0 0 180 44.999999" height="60" preserveAspectRatio="xMidYMid meet" version="1.0"><defs><g/></defs><g fill="#ffffff" fill-opacity="1"><g transform="translate(22.959962, 26.624998)"><g><path d="M 5.984375 0.203125 C 7.128906 0.203125 8.09375 -0.226562 8.875 -1.09375 C 9.601562 -1.925781 9.96875 -2.984375 9.96875 -4.265625 C 9.96875 -5.691406 9.578125 -6.8125 8.796875 -7.625 C 8.203125 -8.207031 7.476562 -8.5 6.625 -8.5 C 5.207031 -8.5 4.195312 -7.859375 3.59375 -6.578125 C 3.53125 -6.460938 3.476562 -6.347656 3.4375 -6.234375 L 3.4375 -12.703125 L 0.515625 -12.703125 L 0.515625 -12.203125 L 1.96875 -12.203125 L 1.96875 -1.65625 C 1.96875 -1.0625 1.800781 -0.707031 1.46875 -0.59375 C 1.269531 -0.519531 0.953125 -0.484375 0.515625 -0.484375 L 0.515625 0 L 2.96875 0 L 3.140625 -1.296875 C 3.703125 -0.390625 4.550781 0.0976562 5.6875 0.171875 C 5.789062 0.191406 5.890625 0.203125 5.984375 0.203125 Z M 6.015625 -7.71875 C 7.085938 -7.71875 7.785156 -7.066406 8.109375 -5.765625 C 8.234375 -5.285156 8.296875 -4.738281 8.296875 -4.125 C 8.296875 -2.289062 7.800781 -1.097656 6.8125 -0.546875 C 6.5 -0.378906 6.15625 -0.296875 5.78125 -0.296875 C 4.800781 -0.296875 4.113281 -0.816406 3.71875 -1.859375 C 3.519531 -2.398438 3.421875 -3.03125 3.421875 -3.75 C 3.421875 -5.320312 3.8125 -6.460938 4.59375 -7.171875 C 5.007812 -7.535156 5.484375 -7.71875 6.015625 -7.71875 Z M 6.015625 -7.71875 "/></g></g></g><g fill="#ffffff" fill-opacity="1"><g transform="translate(33.697952, 26.624998)"><g><path d="M 7.640625 0.203125 C 8.640625 0.203125 9.191406 -0.40625 9.296875 -1.625 C 9.304688 -1.695312 9.3125 -1.769531 9.3125 -1.84375 L 8.8125 -1.859375 C 8.71875 -0.910156 8.460938 -0.425781 8.046875 -0.40625 C 7.710938 -0.4375 7.535156 -0.773438 7.515625 -1.421875 L 7.515625 -5.546875 C 7.515625 -7.410156 6.585938 -8.394531 4.734375 -8.5 C 4.609375 -8.5 4.488281 -8.5 4.375 -8.5 C 2.914062 -8.5 1.941406 -8.160156 1.453125 -7.484375 C 1.296875 -7.265625 1.21875 -7.039062 1.21875 -6.8125 C 1.21875 -6.414062 1.40625 -6.179688 1.78125 -6.109375 C 1.84375 -6.097656 1.90625 -6.09375 1.96875 -6.09375 C 2.269531 -6.09375 2.492188 -6.28125 2.640625 -6.65625 C 2.816406 -7.144531 2.941406 -7.429688 3.015625 -7.515625 C 3.253906 -7.847656 3.632812 -8.015625 4.15625 -8.015625 C 5.382812 -7.929688 6.019531 -7.257812 6.0625 -6 L 6.0625 -4.765625 C 3 -4.765625 1.242188 -4.128906 0.796875 -2.859375 C 0.722656 -2.609375 0.6875 -2.335938 0.6875 -2.046875 C 0.6875 -1.054688 1.125 -0.378906 2 -0.015625 C 2.34375 0.128906 2.710938 0.203125 3.109375 0.203125 C 4.054688 0.203125 4.859375 -0.125 5.515625 -0.78125 C 5.742188 -1.03125 5.914062 -1.289062 6.03125 -1.5625 C 6.1875 -0.40625 6.722656 0.179688 7.640625 0.203125 Z M 3.75 -0.59375 C 2.957031 -0.59375 2.46875 -0.988281 2.28125 -1.78125 C 2.25 -1.957031 2.234375 -2.160156 2.234375 -2.390625 C 2.234375 -3.253906 2.734375 -3.804688 3.734375 -4.046875 C 4.265625 -4.160156 5.039062 -4.222656 6.0625 -4.234375 L 6.0625 -2.671875 C 5.863281 -1.773438 5.382812 -1.144531 4.625 -0.78125 C 4.332031 -0.65625 4.039062 -0.59375 3.75 -0.59375 Z M 3.75 -0.59375 "/></g></g></g><g fill="#ffffff" fill-opacity="1"><g transform="translate(43.108337, 26.624998)"><g><path d="M 4.96875 -0.484375 L 3.5625 -0.484375 L 3.5625 -4.375 C 3.5625 -5.5625 3.925781 -6.515625 4.65625 -7.234375 C 4.9375 -7.503906 5.175781 -7.644531 5.375 -7.65625 C 5.59375 -7.65625 5.796875 -7.492188 5.984375 -7.171875 C 6.191406 -6.804688 6.382812 -6.597656 6.5625 -6.546875 C 6.644531 -6.515625 6.722656 -6.5 6.796875 -6.5 C 7.191406 -6.5 7.441406 -6.691406 7.546875 -7.078125 C 7.566406 -7.148438 7.578125 -7.226562 7.578125 -7.3125 C 7.578125 -7.894531 7.28125 -8.25 6.6875 -8.375 C 6.550781 -8.40625 6.425781 -8.421875 6.3125 -8.421875 C 5.53125 -8.421875 4.832031 -8.085938 4.21875 -7.421875 C 3.9375 -7.109375 3.707031 -6.757812 3.53125 -6.375 L 3.453125 -8.296875 L 0.625 -8.296875 L 0.625 -7.8125 L 2.09375 -7.8125 L 2.09375 -1.65625 C 2.09375 -1.0625 1.921875 -0.707031 1.578125 -0.59375 C 1.390625 -0.519531 1.070312 -0.484375 0.625 -0.484375 L 0.625 0 L 5.453125 0 C 5.453125 -0.289062 5.351562 -0.445312 5.15625 -0.46875 C 5.101562 -0.476562 5.039062 -0.484375 4.96875 -0.484375 Z M 4.96875 -0.484375 "/></g></g></g><g fill="#ffffff" fill-opacity="1"><g transform="translate(50.781119, 26.624998)"><g><path d="M 4.390625 -0.484375 L 3.515625 -0.484375 L 3.515625 -4.703125 C 3.554688 -5.921875 3.988281 -6.796875 4.8125 -7.328125 C 5.15625 -7.546875 5.507812 -7.65625 5.875 -7.65625 C 6.675781 -7.65625 7.21875 -7.285156 7.5 -6.546875 C 7.613281 -6.242188 7.671875 -5.90625 7.671875 -5.53125 L 7.671875 -1.65625 C 7.671875 -1.0625 7.503906 -0.707031 7.171875 -0.59375 C 6.972656 -0.519531 6.65625 -0.484375 6.21875 -0.484375 L 6.21875 0 L 10.609375 0 C 10.609375 -0.289062 10.507812 -0.445312 10.3125 -0.46875 C 10.257812 -0.476562 10.195312 -0.484375 10.125 -0.484375 L 9.140625 -0.484375 L 9.140625 -5.328125 C 9.140625 -6.628906 8.691406 -7.5625 7.796875 -8.125 C 7.378906 -8.375 6.929688 -8.5 6.453125 -8.5 C 5.484375 -8.5 4.6875 -8.113281 4.0625 -7.34375 C 3.832031 -7.039062 3.644531 -6.707031 3.5 -6.34375 L 3.421875 -8.296875 L 0.59375 -8.296875 L 0.59375 -7.8125 L 2.046875 -7.8125 L 2.046875 -1.65625 C 2.046875 -1.0625 1.878906 -0.707031 1.546875 -0.59375 C 1.347656 -0.519531 1.03125 -0.484375 0.59375 -0.484375 L 0.59375 0 L 4.890625 0 C 4.890625 -0.289062 4.789062 -0.445312 4.59375 -0.46875 C 4.539062 -0.476562 4.472656 -0.484375 4.390625 -0.484375 Z M 4.390625 -0.484375 "/></g></g></g><g fill="#ffffff" fill-opacity="1"><g transform="translate(61.870535, 26.624998)"><g><path d="M 7.640625 0.203125 C 8.640625 0.203125 9.191406 -0.40625 9.296875 -1.625 C 9.304688 -1.695312 9.3125 -1.769531 9.3125 -1.84375 L 8.8125 -1.859375 C 8.71875 -0.910156 8.460938 -0.425781 8.046875 -0.40625 C 7.710938 -0.4375 7.535156 -0.773438 7.515625 -1.421875 L 7.515625 -5.546875 C 7.515625 -7.410156 6.585938 -8.394531 4.734375 -8.5 C 4.609375 -8.5 4.488281 -8.5 4.375 -8.5 C 2.914062 -8.5 1.941406 -8.160156 1.453125 -7.484375 C 1.296875 -7.265625 1.21875 -7.039062 1.21875 -6.8125 C 1.21875 -6.414062 1.40625 -6.179688 1.78125 -6.109375 C 1.84375 -6.097656 1.90625 -6.09375 1.96875 -6.09375 C 2.269531 -6.09375 2.492188 -6.28125 2.640625 -6.65625 C 2.816406 -7.144531 2.941406 -7.429688 3.015625 -7.515625 C 3.253906 -7.847656 3.632812 -8.015625 4.15625 -8.015625 C 5.382812 -7.929688 6.019531 -7.257812 6.0625 -6 L 6.0625 -4.765625 C 3 -4.765625 1.242188 -4.128906 0.796875 -2.859375 C 0.722656 -2.609375 0.6875 -2.335938 0.6875 -2.046875 C 0.6875 -1.054688 1.125 -0.378906 2 -0.015625 C 2.34375 0.128906 2.710938 0.203125 3.109375 0.203125 C 4.054688 0.203125 4.859375 -0.125 5.515625 -0.78125 C 5.742188 -1.03125 5.914062 -1.289062 6.03125 -1.5625 C 6.1875 -0.40625 6.722656 0.179688 7.640625 0.203125 Z M 3.75 -0.59375 C 2.957031 -0.59375 2.46875 -0.988281 2.28125 -1.78125 C 2.25 -1.957031 2.234375 -2.160156 2.234375 -2.390625 C 2.234375 -3.253906 2.734375 -3.804688 3.734375 -4.046875 C 4.265625 -4.160156 5.039062 -4.222656 6.0625 -4.234375 L 6.0625 -2.671875 C 5.863281 -1.773438 5.382812 -1.144531 4.625 -0.78125 C 4.332031 -0.65625 4.039062 -0.59375 3.75 -0.59375 Z M 3.75 -0.59375 "/></g></g></g><g fill="#ffffff" fill-opacity="1"><g transform="translate(71.28092, 26.624998)"><g><path d="M 5.984375 0.203125 C 7.128906 0.203125 8.09375 -0.226562 8.875 -1.09375 C 9.601562 -1.925781 9.96875 -2.984375 9.96875 -4.265625 C 9.96875 -5.691406 9.578125 -6.8125 8.796875 -7.625 C 8.203125 -8.207031 7.476562 -8.5 6.625 -8.5 C 5.207031 -8.5 4.195312 -7.859375 3.59375 -6.578125 C 3.53125 -6.460938 3.476562 -6.347656 3.4375 -6.234375 L 3.4375 -12.703125 L 0.515625 -12.703125 L 0.515625 -12.203125 L 1.96875 -12.203125 L 1.96875 -1.65625 C 1.96875 -1.0625 1.800781 -0.707031 1.46875 -0.59375 C 1.269531 -0.519531 0.953125 -0.484375 0.515625 -0.484375 L 0.515625 0 L 2.96875 0 L 3.140625 -1.296875 C 3.703125 -0.390625 4.550781 0.0976562 5.6875 0.171875 C 5.789062 0.191406 5.890625 0.203125 5.984375 0.203125 Z M 6.015625 -7.71875 C 7.085938 -7.71875 7.785156 -7.066406 8.109375 -5.765625 C 8.234375 -5.285156 8.296875 -4.738281 8.296875 -4.125 C 8.296875 -2.289062 7.800781 -1.097656 6.8125 -0.546875 C 6.5 -0.378906 6.15625 -0.296875 5.78125 -0.296875 C 4.800781 -0.296875 4.113281 -0.816406 3.71875 -1.859375 C 3.519531 -2.398438 3.421875 -3.03125 3.421875 -3.75 C 3.421875 -5.320312 3.8125 -6.460938 4.59375 -7.171875 C 5.007812 -7.535156 5.484375 -7.71875 6.015625 -7.71875 Z M 6.015625 -7.71875 "/></g></g></g><g fill="#ffffff" fill-opacity="1"><g transform="translate(82.01891, 26.624998)"><g><path d="M 7.640625 0.203125 C 8.640625 0.203125 9.191406 -0.40625 9.296875 -1.625 C 9.304688 -1.695312 9.3125 -1.769531 9.3125 -1.84375 L 8.8125 -1.859375 C 8.71875 -0.910156 8.460938 -0.425781 8.046875 -0.40625 C 7.710938 -0.4375 7.535156 -0.773438 7.515625 -1.421875 L 7.515625 -5.546875 C 7.515625 -7.410156 6.585938 -8.394531 4.734375 -8.5 C 4.609375 -8.5 4.488281 -8.5 4.375 -8.5 C 2.914062 -8.5 1.941406 -8.160156 1.453125 -7.484375 C 1.296875 -7.265625 1.21875 -7.039062 1.21875 -6.8125 C 1.21875 -6.414062 1.40625 -6.179688 1.78125 -6.109375 C 1.84375 -6.097656 1.90625 -6.09375 1.96875 -6.09375 C 2.269531 -6.09375 2.492188 -6.28125 2.640625 -6.65625 C 2.816406 -7.144531 2.941406 -7.429688 3.015625 -7.515625 C 3.253906 -7.847656 3.632812 -8.015625 4.15625 -8.015625 C 5.382812 -7.929688 6.019531 -7.257812 6.0625 -6 L 6.0625 -4.765625 C 3 -4.765625 1.242188 -4.128906 0.796875 -2.859375 C 0.722656 -2.609375 0.6875 -2.335938 0.6875 -2.046875 C 0.6875 -1.054688 1.125 -0.378906 2 -0.015625 C 2.34375 0.128906 2.710938 0.203125 3.109375 0.203125 C 4.054688 0.203125 4.859375 -0.125 5.515625 -0.78125 C 5.742188 -1.03125 5.914062 -1.289062 6.03125 -1.5625 C 6.1875 -0.40625 6.722656 0.179688 7.640625 0.203125 Z M 3.75 -0.59375 C 2.957031 -0.59375 2.46875 -0.988281 2.28125 -1.78125 C 2.25 -1.957031 2.234375 -2.160156 2.234375 -2.390625 C 2.234375 -3.253906 2.734375 -3.804688 3.734375 -4.046875 C 4.265625 -4.160156 5.039062 -4.222656 6.0625 -4.234375 L 6.0625 -2.671875 C 5.863281 -1.773438 5.382812 -1.144531 4.625 -0.78125 C 4.332031 -0.65625 4.039062 -0.59375 3.75 -0.59375 Z M 3.75 -0.59375 "/></g></g></g><g fill="#ffffff" fill-opacity="1"><g transform="translate(91.429295, 26.624998)"><g><path d="M 3.71875 -0.328125 C 4.613281 -0.328125 5.21875 -0.601562 5.53125 -1.15625 C 5.644531 -1.351562 5.703125 -1.566406 5.703125 -1.796875 C 5.703125 -2.347656 5.304688 -2.816406 4.515625 -3.203125 C 4.347656 -3.296875 4.066406 -3.425781 3.671875 -3.59375 C 2.609375 -4.039062 1.898438 -4.457031 1.546875 -4.84375 C 1.171875 -5.269531 0.984375 -5.769531 0.984375 -6.34375 C 0.984375 -7.25 1.476562 -7.882812 2.46875 -8.25 C 2.914062 -8.414062 3.410156 -8.5 3.953125 -8.5 C 4.804688 -8.5 5.546875 -8.316406 6.171875 -7.953125 C 6.171875 -8.328125 6.265625 -8.539062 6.453125 -8.59375 C 6.523438 -8.601562 6.609375 -8.609375 6.703125 -8.609375 L 6.703125 -6.171875 L 6.1875 -6.171875 C 6.164062 -7.367188 5.503906 -7.972656 4.203125 -7.984375 C 3.222656 -7.984375 2.617188 -7.695312 2.390625 -7.125 C 2.316406 -6.96875 2.28125 -6.804688 2.28125 -6.640625 C 2.28125 -6.078125 2.6875 -5.601562 3.5 -5.21875 C 3.675781 -5.125 3.960938 -5 4.359375 -4.84375 C 5.410156 -4.414062 6.113281 -4.003906 6.46875 -3.609375 C 6.84375 -3.191406 7.03125 -2.695312 7.03125 -2.125 C 7.03125 -1.070312 6.472656 -0.367188 5.359375 -0.015625 C 4.921875 0.128906 4.453125 0.203125 3.953125 0.203125 C 3.015625 0.179688 2.195312 -0.0546875 1.5 -0.515625 C 1.5 -0.171875 1.414062 0.0234375 1.25 0.078125 C 1.175781 0.0859375 1.085938 0.09375 0.984375 0.09375 L 0.984375 -2.875 L 1.53125 -2.875 C 1.550781 -1.195312 2.28125 -0.347656 3.71875 -0.328125 Z M 3.71875 -0.328125 "/></g></g></g><g fill="#ffffff" fill-opacity="1"><g transform="translate(99.238742, 26.624998)"><g/></g></g><g fill="#ff5757" fill-opacity="1"><g transform="translate(103.045894, 26.624998)"><g><path d="M 2.96875 -0.90625 C 2.96875 -1.332031 2.773438 -1.632812 2.390625 -1.8125 C 2.253906 -1.882812 2.113281 -1.921875 1.96875 -1.921875 C 1.539062 -1.921875 1.242188 -1.722656 1.078125 -1.328125 C 1.015625 -1.179688 0.984375 -1.039062 0.984375 -0.90625 C 0.984375 -0.488281 1.171875 -0.1875 1.546875 0 C 1.691406 0.0625 1.832031 0.09375 1.96875 0.09375 C 2.382812 0.09375 2.6875 -0.09375 2.875 -0.46875 C 2.9375 -0.613281 2.96875 -0.757812 2.96875 -0.90625 Z M 2.96875 -0.90625 "/></g></g></g><g fill="#ffffff" fill-opacity="1"><g transform="translate(106.995112, 26.624998)"><g/></g></g><g fill="#ffffff" fill-opacity="1"><g transform="translate(110.802218, 26.624998)"><g><path d="M 3.71875 -0.328125 C 4.613281 -0.328125 5.21875 -0.601562 5.53125 -1.15625 C 5.644531 -1.351562 5.703125 -1.566406 5.703125 -1.796875 C 5.703125 -2.347656 5.304688 -2.816406 4.515625 -3.203125 C 4.347656 -3.296875 4.066406 -3.425781 3.671875 -3.59375 C 2.609375 -4.039062 1.898438 -4.457031 1.546875 -4.84375 C 1.171875 -5.269531 0.984375 -5.769531 0.984375 -6.34375 C 0.984375 -7.25 1.476562 -7.882812 2.46875 -8.25 C 2.914062 -8.414062 3.410156 -8.5 3.953125 -8.5 C 4.804688 -8.5 5.546875 -8.316406 6.171875 -7.953125 C 6.171875 -8.328125 6.265625 -8.539062 6.453125 -8.59375 C 6.523438 -8.601562 6.609375 -8.609375 6.703125 -8.609375 L 6.703125 -6.171875 L 6.1875 -6.171875 C 6.164062 -7.367188 5.503906 -7.972656 4.203125 -7.984375 C 3.222656 -7.984375 2.617188 -7.695312 2.390625 -7.125 C 2.316406 -6.96875 2.28125 -6.804688 2.28125 -6.640625 C 2.28125 -6.078125 2.6875 -5.601562 3.5 -5.21875 C 3.675781 -5.125 3.960938 -5 4.359375 -4.84375 C 5.410156 -4.414062 6.113281 -4.003906 6.46875 -3.609375 C 6.84375 -3.191406 7.03125 -2.695312 7.03125 -2.125 C 7.03125 -1.070312 6.472656 -0.367188 5.359375 -0.015625 C 4.921875 0.128906 4.453125 0.203125 3.953125 0.203125 C 3.015625 0.179688 2.195312 -0.0546875 1.5 -0.515625 C 1.5 -0.171875 1.414062 0.0234375 1.25 0.078125 C 1.175781 0.0859375 1.085938 0.09375 0.984375 0.09375 L 0.984375 -2.875 L 1.53125 -2.875 C 1.550781 -1.195312 2.28125 -0.347656 3.71875 -0.328125 Z M 3.71875 -0.328125 "/></g></g></g><g fill="#ffffff" fill-opacity="1"><g transform="translate(118.611666, 26.624998)"><g><path d="M 2.25 -0.515625 L 7.546875 -7.984375 L 7.546875 -8.40625 L 0.9375 -8.40625 L 0.765625 -5.859375 L 1.0625 -5.859375 L 1.53125 -6.9375 C 1.8125 -7.5625 2.226562 -7.878906 2.78125 -7.890625 L 5.921875 -7.890625 L 0.4375 -0.4375 L 0.4375 0 L 7.5625 0 L 7.625 -2.953125 L 7.34375 -2.953125 L 7.109375 -1.875 C 6.960938 -1.15625 6.628906 -0.71875 6.109375 -0.5625 C 5.992188 -0.53125 5.878906 -0.515625 5.765625 -0.515625 Z M 2.25 -0.515625 "/></g></g></g><g fill="#ffffff" fill-opacity="1"><g transform="translate(126.850633, 26.624998)"><g><path d="M 7.640625 0.203125 C 8.640625 0.203125 9.191406 -0.40625 9.296875 -1.625 C 9.304688 -1.695312 9.3125 -1.769531 9.3125 -1.84375 L 8.8125 -1.859375 C 8.71875 -0.910156 8.460938 -0.425781 8.046875 -0.40625 C 7.710938 -0.4375 7.535156 -0.773438 7.515625 -1.421875 L 7.515625 -5.546875 C 7.515625 -7.410156 6.585938 -8.394531 4.734375 -8.5 C 4.609375 -8.5 4.488281 -8.5 4.375 -8.5 C 2.914062 -8.5 1.941406 -8.160156 1.453125 -7.484375 C 1.296875 -7.265625 1.21875 -7.039062 1.21875 -6.8125 C 1.21875 -6.414062 1.40625 -6.179688 1.78125 -6.109375 C 1.84375 -6.097656 1.90625 -6.09375 1.96875 -6.09375 C 2.269531 -6.09375 2.492188 -6.28125 2.640625 -6.65625 C 2.816406 -7.144531 2.941406 -7.429688 3.015625 -7.515625 C 3.253906 -7.847656 3.632812 -8.015625 4.15625 -8.015625 C 5.382812 -7.929688 6.019531 -7.257812 6.0625 -6 L 6.0625 -4.765625 C 3 -4.765625 1.242188 -4.128906 0.796875 -2.859375 C 0.722656 -2.609375 0.6875 -2.335938 0.6875 -2.046875 C 0.6875 -1.054688 1.125 -0.378906 2 -0.015625 C 2.34375 0.128906 2.710938 0.203125 3.109375 0.203125 C 4.054688 0.203125 4.859375 -0.125 5.515625 -0.78125 C 5.742188 -1.03125 5.914062 -1.289062 6.03125 -1.5625 C 6.1875 -0.40625 6.722656 0.179688 7.640625 0.203125 Z M 3.75 -0.59375 C 2.957031 -0.59375 2.46875 -0.988281 2.28125 -1.78125 C 2.25 -1.957031 2.234375 -2.160156 2.234375 -2.390625 C 2.234375 -3.253906 2.734375 -3.804688 3.734375 -4.046875 C 4.265625 -4.160156 5.039062 -4.222656 6.0625 -4.234375 L 6.0625 -2.671875 C 5.863281 -1.773438 5.382812 -1.144531 4.625 -0.78125 C 4.332031 -0.65625 4.039062 -0.59375 3.75 -0.59375 Z M 3.75 -0.59375 "/></g></g></g><g fill="#ffffff" fill-opacity="1"><g transform="translate(136.261018, 26.624998)"><g><path d="M 5.984375 0.203125 C 7.128906 0.203125 8.09375 -0.226562 8.875 -1.09375 C 9.601562 -1.925781 9.96875 -2.984375 9.96875 -4.265625 C 9.96875 -5.691406 9.578125 -6.8125 8.796875 -7.625 C 8.203125 -8.207031 7.476562 -8.5 6.625 -8.5 C 5.207031 -8.5 4.195312 -7.859375 3.59375 -6.578125 C 3.53125 -6.460938 3.476562 -6.347656 3.4375 -6.234375 L 3.4375 -12.703125 L 0.515625 -12.703125 L 0.515625 -12.203125 L 1.96875 -12.203125 L 1.96875 -1.65625 C 1.96875 -1.0625 1.800781 -0.707031 1.46875 -0.59375 C 1.269531 -0.519531 0.953125 -0.484375 0.515625 -0.484375 L 0.515625 0 L 2.96875 0 L 3.140625 -1.296875 C 3.703125 -0.390625 4.550781 0.0976562 5.6875 0.171875 C 5.789062 0.191406 5.890625 0.203125 5.984375 0.203125 Z M 6.015625 -7.71875 C 7.085938 -7.71875 7.785156 -7.066406 8.109375 -5.765625 C 8.234375 -5.285156 8.296875 -4.738281 8.296875 -4.125 C 8.296875 -2.289062 7.800781 -1.097656 6.8125 -0.546875 C 6.5 -0.378906 6.15625 -0.296875 5.78125 -0.296875 C 4.800781 -0.296875 4.113281 -0.816406 3.71875 -1.859375 C 3.519531 -2.398438 3.421875 -3.03125 3.421875 -3.75 C 3.421875 -5.320312 3.8125 -6.460938 4.59375 -7.171875 C 5.007812 -7.535156 5.484375 -7.71875 6.015625 -7.71875 Z M 6.015625 -7.71875 "/></g></g></g><g fill="#ffffff" fill-opacity="1"><g transform="translate(146.999009, 26.624998)"><g><path d="M 2.4375 -4.15625 C 2.4375 -6.175781 2.992188 -7.410156 4.109375 -7.859375 C 4.390625 -7.960938 4.6875 -8.015625 5 -8.015625 C 6.445312 -8.015625 7.285156 -7.101562 7.515625 -5.28125 C 7.554688 -4.96875 7.578125 -4.617188 7.578125 -4.234375 C 7.578125 -2.046875 6.976562 -0.765625 5.78125 -0.390625 C 5.550781 -0.328125 5.3125 -0.296875 5.0625 -0.296875 C 3.75 -0.296875 2.921875 -1.078125 2.578125 -2.640625 C 2.484375 -3.097656 2.4375 -3.601562 2.4375 -4.15625 Z M 5.0625 -8.5 C 3.8125 -8.5 2.769531 -8.066406 1.9375 -7.203125 C 1.164062 -6.410156 0.78125 -5.421875 0.78125 -4.234375 C 0.78125 -2.597656 1.378906 -1.367188 2.578125 -0.546875 C 3.304688 -0.046875 4.113281 0.203125 5 0.203125 C 6.25 0.203125 7.285156 -0.242188 8.109375 -1.140625 C 8.859375 -1.941406 9.234375 -2.945312 9.234375 -4.15625 C 9.234375 -5.800781 8.628906 -7.019531 7.421875 -7.8125 C 6.703125 -8.269531 5.914062 -8.5 5.0625 -8.5 Z M 5.0625 -8.5 "/></g></g></g></svg>